<svg width="400" height="400" viewBox="0 0 105.833 105.833" xmlns:xlink="http://www.w3.org/1999/xlink" xmlns="http://www.w3.org/2000/svg"><defs><linearGradient id="a"><stop style="stop-color:#fff;stop-opacity:1" offset="0"/><stop style="stop-color:#fff;stop-opacity:.61745059" offset="1"/></linearGradient><linearGradient xlink:href="#a" id="b" x1="148.932" y1="197.282" x2="118.375" y2="170.855" gradientUnits="userSpaceOnUse" gradientTransform="matrix(1.10598 0 0 1.10599 -8.685 -17.392)"/></defs><g transform="translate(-70.188 -151.252)"><rect style="fill:#075ffa;fill-opacity:1;stroke-width:.0304193;stroke-linecap:square;stroke-linejoin:round;paint-order:markers fill stroke" width="105.833" height="105.833" x="70.188" y="151.252" ry="23.618"/><path d="m154.726 177.555-9.32-7.496-26.778 30.785-13.77-10.79-7.865 9.039 23.56 18.877z" style="fill:#fff;fill-opacity:1;stroke-width:.0774234" transform="translate(4.111 3.029)"/><path style="color:#000;fill:url(#b);fill-opacity:1;stroke-width:1.10354;stroke-linecap:square;stroke-linejoin:round;-inkscape-stroke:none;paint-order:markers fill stroke" d="M118.994 164.098c-20.414 0-37.042 16.628-37.042 37.042s16.628 37.041 37.042 37.041 37.041-16.627 37.041-37.041l-.004-.34h-7.298l.004.34c0 16.47-13.275 29.741-29.744 29.741S89.251 217.61 89.251 201.14s13.273-29.744 29.742-29.744q1.644.001 3.242.176l.402-7.294q-1.799-.178-3.644-.18z" transform="translate(4.111 3.029)"/></g></svg>
